# xmcd
#
# Track frame offsets:
#	150
#	27464
#	47522
#	66761
#	91322
#	111722
#	129426
#	152460
#	173433
#	199251
#	221306
#	241331
#
# Disc length: 3558 seconds
#
# Revision: 1
# Processed by: cddbd v1.5.2PL0 Copyright (c) Steve Scherf et al.
# Submitted via: audiograbber 1.83.01
#
DISCID=9d0de40c
DTITLE=Various Artist - Serious Beats 81 CD 2
DYEAR=2015
DGENRE=Dance
TTITLE0=Axwell Ingrosso - On My Way
TTITLE1=Tiesto and KSHMR Ft Vassy - Secrets
TTITLE2=Tujamo - Booty Bounce
TTITLE3=Nicky Romero Vs Volt and State - Warriors
TTITLE4=Alvaro and Jetfire - Guest List
TTITLE5=W&W - Rave After Rave
TTITLE6=Felix - Don't You Want Me 2015 (Dimitri Vegas and Like Mike Remix)
TTITLE7=Quintino Ft Una - Escape (Into The Sunset)
TTITLE8=Otto Knows - Next To Me
TTITLE9=Zonderling - Telraam
TTITLE10=La Fuente - Selecta
TTITLE11=Jack Perry - Dime
EXTD=
EXTT0=
EXTT1=
EXTT2=
EXTT3=
EXTT4=
EXTT5=
EXTT6=
EXTT7=
EXTT8=
EXTT9=
EXTT10=
EXTT11=
PLAYORDER=
